<svg xmlns="http://www.w3.org/2000/svg"><symbol id="contact" viewBox="0 0 256 256"><path d="M141.1 244.9c-24.2-.3-44.9-8.9-62-26-13.9-13.8-28.1-27.2-41.4-41.5-24.5-26.4-30.6-57-19-91 4-11.6 18.7-15 27.7-6.7 5.3 4.8 10.2 9.9 15.1 15a16.6 16.6 0 0 1 4.5 15c-2.3 13 1.4 23.9 10.8 33.2 12.9 12.7 25.6 25.4 38.3 38.3 9.2 9.4 20.1 13 33 10.8a17.5 17.5 0 0 1 15.8 5.1c4.7 4.6 9.4 9.2 13.9 14a17.1 17.1 0 0 1-6.6 28.4 85.7 85.7 0 0 1-30.1 5.4zm11.4-221.2V13.1c47 .1 91.5 40.2 92.4 92.4h-10.8c-6.2-48.3-33.3-75.3-81.6-81.8zm-5.9 50.2V62.5c22.6.4 47.1 19.3 49 48.8h-11.5a40.7 40.7 0 0 0-37.5-37.4z"/></symbol><symbol id="home" viewBox="0 0 256 256"><path d="M209.4 226.5v-2.9q0-38.2.1-76.5c0-5.8 4.3-9.3 9.9-8.1a7.5 7.5 0 0 1 5.7 6.1 18.4 18.4 0 0 1 .3 3.3v84.5c0 1.1-.1 2.1-.2 3.2a7.9 7.9 0 0 1-6.8 6.4H46.9a14.3 14.3 0 0 1-5.1-.7c-3.5-1.4-4.9-4.3-4.9-8V148c0-4.9 2.1-8 6-9a7.9 7.9 0 0 1 9.9 7 24.4 24.4 0 0 1 .1 2.7v77.8zM131 30.8a18.5 18.5 0 0 1-1.8 2.6l-89 89.1c-2.8 2.8-5.8 4.3-9.7 2.7s-6.6-8.6-2.7-12.9a9.3 9.3 0 0 1 1.4-1.4l95.2-95.2c4.7-4.7 8.8-4.8 13.5-.1l54.8 54.8 2.1 1.9v-5.2c0-6.5-.1-13 0-19.5a8 8 0 0 1 13.2-6.2c2.2 1.9 2.8 4.5 2.8 7.3v37.6a4.6 4.6 0 0 0 1.6 3.9c7.3 7.2 14.7 14.5 22 21.9a7.8 7.8 0 0 1-2 12.8 7.3 7.3 0 0 1-8-.5 17.1 17.1 0 0 1-2.5-2.2l-88.7-88.8c-.6-.6-1.1-1.3-2.2-2.6z"/></symbol><symbol id="check" viewBox="0 0 256 256"><path d="M100.2 167.9a30.4 30.4 0 0 1 2.1-2.5l106.9-107c8.3-8.2 21.4-5.4 25 5.4a14.3 14.3 0 0 1-2.3 13.7 19.3 19.3 0 0 1-2.7 3L112.7 197c-6.7 6.6-14.2 7.2-21.7 1.4L27.2 149c-7-5.4-8.2-14.4-3-21.2s14.1-7.6 21-2.4l33 25.5z"/></symbol><symbol id="profile" viewBox="0 0 256 256"><path d="M124.5 239H47.2c-4.8 0-6.1-1.3-6.1-6.1.1-6.8-.1-13.7.3-20.5A79.7 79.7 0 0 1 58.3 168c13.9-18 32-29 54.5-32 29.4-3.9 54.3 5.3 74.3 27.3 13.3 14.7 20 32.3 20.8 52.1.3 6.1.2 12.1.3 18.2 0 3.7-1.7 5.3-5.4 5.3zm74.7-9c.1-8.8.3-17.4-1.5-25.9-7.8-38.4-42.7-64.1-81.6-59.5-26.1 3.1-45.3 16.8-57.8 39.9-7.7 14.1-8.9 29.5-8.1 45.2 0 .1.1.2.2.3zM124.9 37.1c24.7-.1 44.3 19.6 44.4 44.5 0 22.3-17.6 43.7-43.4 44.1S80.6 106.4 80.5 81s19.9-43.9 44.4-43.9zm-.1 79.7c19.3.1 35.5-15.9 35.5-34.9s-15.5-35.8-34.7-36-35.8 15.1-36.1 34c-.4 20.8 15.3 36.9 35.3 36.9z"/></symbol><symbol id="search" viewBox="0 0 256 256"><path d="M173.4 163.7l13.1 13 31.8 31.8a10.3 10.3 0 0 1 1.4 13.4c-3.8 5.2-10.9 5.7-15.7 1l-31.1-30.8c-4.6-4.6-9.1-9.4-13.6-14.1-18.7 13.6-39 18.3-61.1 14.1-18.7-3.7-33.9-13.5-45.4-28.6-22.2-29.1-20.3-71.2 6.8-98.8s67.8-29.8 97.6-8.1c17.1 12.5 27.6 29.2 30.7 50.1s-2 39.8-14.5 57zm-60 9.5c32.8.1 55.2-27.2 55.2-55.1a55.2 55.2 0 1 0-55.2 55.1z"/></symbol><symbol id="x" viewBox="0 0 256 256"><path d="M108.6 138.7l-1.5-1.1-47.7-47.8c-6-6-5.9-14.7 0-20.4a13.7 13.7 0 0 1 18.7-.2c4.7 4.5 9.2 9.1 13.8 13.7L127 118l1.1 1.1 6.2-6.4L177.1 70a13.9 13.9 0 0 1 20.4.2 14 14 0 0 1 .1 18.6l-1.4 1.4-47.4 47.4a10.9 10.9 0 0 1-1.1 1l1.1 1.2 47.9 47.8c6 6.1 5.9 15-.2 20.6s-13.6 4.9-18.6 0c-7-6.7-13.7-13.6-20.6-20.4L129 159.4l-1.3-1.1-.8 1.3-47.7 47.7a14 14 0 0 1-10.8 4.5c-5.7-.3-10-3.1-12.2-8.4a13.3 13.3 0 0 1 2.2-14.7l1.3-1.3 47.6-47.7z"/></symbol><symbol id="cart" viewBox="0 0 256 256"><path d="M74.8 73.3l45.7 1.2 109.2 2.7c4.4.1 6.9 4 5.3 8.6-2.5 7.6-5.1 15.2-7.7 22.8-5.5 16.2-11.1 32.4-16.6 48.7-1.5 4.6-2.9 5.5-7.8 5.5H95.5a28.8 28.8 0 0 0-5.9.5c-4.7 1-7.6 4.3-7.7 8.5a9.8 9.8 0 0 0 7.5 9.3 22.2 22.2 0 0 0 4.5.4h102.5c4.6 0 7.2 2.9 6.4 7.2a5.1 5.1 0 0 1-4.8 4.5H91.8a21.4 21.4 0 0 1-21.1-15.8 20.1 20.1 0 0 1 12.5-24.6l3.4-1.2-2.1-6.6Q65.8 85.3 47.2 25.5c-.6-1.7-1.2-2.3-3.1-2.3-7 0-14.1-.2-21.1-.4-4.6-.2-7.3-3.8-5.9-7.9a5.3 5.3 0 0 1 5.1-3.9h29.2c3.1.1 4.9 2.3 5.7 5.2Q65 41.5 72.8 66.8zm4 12.4c0 .5 0 .7.1.8 6.5 21.1 13.1 42.1 19.6 63.1.4 1.4 1.3 1.4 2.4 1.4h97.4a2.3 2.3 0 0 0 2.6-1.9l19.9-58.2.6-1.9zm4.6 136.4a23.1 23.1 0 0 1 23.2-22.8 23.2 23.2 0 1 1-23.2 22.8zm23.4-11a11.3 11.3 0 1 0-.6 22.6 11.3 11.3 0 0 0 .6-22.6zm64.6-11.8a23.2 23.2 0 1 1-23.2 22.8 23.3 23.3 0 0 1 23.2-22.8zm.2 11.8a11.3 11.3 0 0 0-.7 22.6 11.6 11.6 0 0 0 11.8-10.7 11.4 11.4 0 0 0-11.1-11.9z"/></symbol></svg>