<svg id="Layer_1" data-name="Layer 1" xmlns="http://www.w3.org/2000/svg" width="248.4" height="300.3" viewBox="0 0 248.4 300.3"><title>logo</title><path d="M100.9,167.7c-14-.9-27.1-2.7-37.4-5.4-61.1-12.2-15.1-57.7,6.6-80a89.7,89.7,0,0,0-2.5,21.4C67.6,136.2,81.6,157.6,100.9,167.7Z" fill="#415557"/><path d="M132,33a65.2,65.2,0,0,0-22,3.8c6.1-9.3,11.7-20.9,15.8-36.8a126.8,126.8,0,0,0,13.7,33.5A60.3,60.3,0,0,0,132,33Z" fill="#415557"/><path d="M187.5,161.9a196.1,196.1,0,0,1-26,4.5c15.8-9.4,26.8-26.8,32.8-52.2l-6.4-1.5C177,146.9,161.3,159,142.8,159c-20.3,0-34.9-18.8-34.9-58.9s17.3-54.5,32.3-54.5a28.8,28.8,0,0,1,9,1.4c5.2,6.1,10.4,11.3,15.4,16.5a21.1,21.1,0,0,1,.8,4.5,15.3,15.3,0,0,0-12.5-6.3c-10.1,0-19.4,7.3-19.4,19.4s8.8,18.8,20.5,18.8,22.2-7.3,23.6-21.7C196.7,98.6,253.7,150.1,187.5,161.9Z" fill="#415557"/><path d="M0,243.8a43.6,43.6,0,0,0,11.7,12.1,77.8,77.8,0,0,0,14.4,8,163.9,163.9,0,0,0,31.6,9.3l8.2,1.5,4.1.6,4.1.6c5.5.7,11,1.4,16.6,1.9l8.3.6,8.3.5c5.6.2,11.1.4,16.7.4s11.1-.1,16.7-.3,11.1-.5,16.7-.9,11-1.1,16.5-1.7l8.2-1.2c2.8-.5,5.5-.9,8.2-1.5,10.8-2.1,21.5-4.9,31.5-9.3a71.3,71.3,0,0,0,14.2-8.1,44,44,0,0,0,11.3-12.5,36.1,36.1,0,0,1-7.1,16.6,56.8,56.8,0,0,1-6.1,6.9c-2.2,2.1-4.6,4.1-7,6-9.9,7.3-21.1,12.4-32.5,16.4a202.1,202.1,0,0,1-35,8.2c-5.9.8-11.9,1.4-17.8,1.8s-11.9.6-17.9.6a250,250,0,0,1-35.6-2.8c-5.9-.9-11.8-2-17.6-3.4L66.3,293,62,291.8l-8.6-2.7c-11.4-4-22.5-9.1-32.5-16.4A63.1,63.1,0,0,1,7.7,260.1,38.3,38.3,0,0,1,0,243.8Z" fill="#415557"/><line x1="188" y1="182.5" x2="188" y2="284" fill="none" stroke="#415557" stroke-miterlimit="10" stroke-width="25.25"/><line x1="125.3" y1="182.8" x2="125.3" y2="284.3" fill="none" stroke="#415557" stroke-miterlimit="10" stroke-width="25.25"/><line x1="63.2" y1="182.8" x2="63.2" y2="284.3" fill="none" stroke="#415557" stroke-miterlimit="10" stroke-width="25.25"/><path d="M1.2,145.5a43.2,43.2,0,0,0,11.7,12,72.4,72.4,0,0,0,14.4,8c10,4.3,20.7,7.1,31.6,9.3l8.1,1.5,4.1.7,4.2.5c5.5.8,11,1.4,16.5,1.9l8.3.6,8.4.5c5.5.2,11.1.4,16.7.4l16.7-.3c5.5-.1,11.1-.5,16.6-.9s11.1-1.1,16.6-1.7l8.2-1.2c2.7-.5,5.5-.9,8.2-1.5A150,150,0,0,0,223,166a63.7,63.7,0,0,0,14.1-8.1,43.4,43.4,0,0,0,11.3-12.4,36.2,36.2,0,0,1-7.1,16.5,56,56,0,0,1-6,6.9,66.4,66.4,0,0,1-7.1,6c-9.9,7.3-21.1,12.5-32.4,16.4a194.3,194.3,0,0,1-35.1,8.2c-5.9.8-11.8,1.4-17.8,1.8s-11.9.6-17.8.6a251.4,251.4,0,0,1-35.7-2.8c-5.9-.9-11.8-2-17.6-3.4l-4.3-1.1-4.4-1.2-8.6-2.7c-11.3-4-22.5-9.1-32.4-16.3A66.6,66.6,0,0,1,8.8,161.7,36.6,36.6,0,0,1,1.2,145.5Z" fill="#415557"/></svg>