<?xml version="1.0" encoding="utf-8"?>
<!-- Generator: Adobe Illustrator 23.0.2, SVG Export Plug-In . SVG Version: 6.00 Build 0)  -->
<svg version="1.1" id="Layer_1" xmlns="http://www.w3.org/2000/svg" xmlns:xlink="http://www.w3.org/1999/xlink" x="0px" y="0px"
	 viewBox="0 0 256 256" style="enable-background:new 0 0 256 256;" xml:space="preserve">
<style type="text/css">
	.st0{fill:#2C9C91;}
</style>
<path class="st0" d="M50,207.7c0,0,109.1-4.3,123.3,4.7c0,0,0-24.2-13.2-27.9s-80.1,0-80.1,0c-3.5-1.5,88.8-119.6,95.4-124.4
	s5.7-13.1,5.3-19.5C142,40.6,70.8,41,66.3,36.5S60.9,70,88.7,66.3c20.7-2.5,41.6-3.2,62.4-2.1C97,122,50,201.9,50,207.7L50,207.7z"
	/>
<path class="st0" d="M159.2,84.9l-8.2,9.9c0,0,6.6,9.9,7.9,9.9S174.7,96.3,159.2,84.9z"/>
<g>
	<path class="st0" d="M131.8,79.2l-9,11.4c-19.7,8.7-16.9,21.5-16.9,21.5L90,132.4C90,85.2,115.4,79.2,131.8,79.2z"/>
	<path class="st0" d="M117.4,137.5l-13,17.5c13.7,17,48.4,21.8,64.7-5.5c0-3.7-3.2-3.3-3.2-3.3C154.6,157.5,129.4,161,117.4,137.5z"
		/>
</g>
</svg>
