<svg id="Layer_1" data-name="Layer 1" xmlns="http://www.w3.org/2000/svg" width="256" height="256" viewBox="0 0 256 256"><title>Artboard 1</title><path d="M50,207.7s109.1-4.3,123.3,4.7c0,0,0-24.2-13.2-27.9s-80.1,0-80.1,0C76.5,183,168.8,64.9,175.4,60.1s5.7-13.1,5.3-19.5c-38.7,0-109.9.4-114.4-4.1S60.9,70,88.7,66.3a355.1,355.1,0,0,1,62.4-2.1C97,122,50,201.9,50,207.7Z" fill="#231f20"/><path d="M159.2,84.9,151,94.8s6.6,9.9,7.9,9.9S174.7,96.3,159.2,84.9Z" fill="#231f20"/><path d="M131.8,79.2l-9,11.4c-19.7,8.7-16.9,21.5-16.9,21.5L90,132.4C90,85.2,115.4,79.2,131.8,79.2Z" fill="#231f20"/><path d="M117.4,137.5l-13,17.5c13.7,17,48.4,21.8,64.7-5.5,0-3.7-3.2-3.3-3.2-3.3C154.6,157.5,129.4,161,117.4,137.5Z" fill="#231f20"/></svg>